<svg width="34" height="34" viewBox="0 0 34 34" fill="none" xmlns="http://www.w3.org/2000/svg">
<path d="M0 11.3333C0 5.07411 5.11373 0 11.3522 0V11.3333H0Z" fill="#142B07"/>
<path d="M11.3522 0H22.7043V11.3333H11.3522V0Z" fill="#142B07"/>
<path d="M0 11.3333H11.3522V22.6667H0V11.3333Z" fill="#142B07"/>
<path d="M0 22.6667H11.3522V34C5.11373 34 0 28.9259 0 22.6667Z" fill="#142B07"/>
<path d="M11.3522 22.6667H22.7043V34H11.3522V22.6667Z" fill="#142B07"/>
<path d="M22.7043 22.6667H34C34 28.9259 28.9428 34 22.7043 34V22.6667Z" fill="#142B07"/>
<path d="M22.7043 11.3333H34V22.6667H22.7043V11.3333Z" fill="#449A54"/>
<path d="M11.3522 11.3333H22.7043V22.6667H11.3522V11.3333Z" fill="#5FFC7C"/>
</svg>
